<?xml version="1.0" encoding="UTF-8"?>
<!--Generator: Apple Native CoreSVG 175.5-->
<!DOCTYPE svg
PUBLIC "-//W3C//DTD SVG 1.1//EN"
       "http://www.w3.org/Graphics/SVG/1.1/DTD/svg11.dtd">
<svg version="1.1" xmlns="http://www.w3.org/2000/svg" xmlns:xlink="http://www.w3.org/1999/xlink" width="20.9473" height="19.209">
 <g>
  <rect height="19.209" opacity="0" width="20.9473" x="0" y="0"/>
  <path d="M2.96387 19.209L17.9883 19.209C19.7705 19.209 20.9473 17.8564 20.9473 16.25C20.9473 15.752 20.8154 15.2344 20.5469 14.7607L13.0225 1.62598C12.4512 0.629883 11.4795 0.136719 10.4785 0.136719C9.47266 0.136719 8.48145 0.639648 7.9248 1.62598L0.400391 14.7656C0.126953 15.2393 0 15.752 0 16.25C0 17.8564 1.17676 19.209 2.96387 19.209ZM3.4082 16.8262C2.91504 16.8262 2.6123 16.4404 2.6123 16.001C2.6123 15.874 2.63672 15.6982 2.70996 15.5518L9.79004 3.12012C9.93164 2.86133 10.2148 2.75391 10.4785 2.75391C10.7373 2.75391 11.0059 2.86621 11.1523 3.125L18.2373 15.5713C18.3105 15.7129 18.3398 15.8789 18.3398 16.001C18.3398 16.4404 18.0273 16.8262 17.5391 16.8262ZM10.4834 12.1582C11.1182 12.1582 11.4893 11.8018 11.5186 11.1377L11.6748 7.11426C11.709 6.42578 11.2012 5.94727 10.4736 5.94727C9.74121 5.94727 9.24316 6.4209 9.27734 7.10938L9.42871 11.1475C9.45801 11.7969 9.83398 12.1582 10.4834 12.1582ZM10.4834 15.5029C11.2158 15.5029 11.7822 15.0342 11.7822 14.3311C11.7822 13.6279 11.2207 13.1592 10.4834 13.1592C9.74609 13.1592 9.17969 13.6279 9.17969 14.3311C9.17969 15.0293 9.75098 15.5029 10.4834 15.5029Z" fill="#000000" fill-opacity="0.85"/>
 </g>
</svg>
